HIERARCHY
ROOT Hips
{
	OFFSET 0.000000 0.000000 0.000000
	CHANNELS 6 Xposition Yposition Zposition Xrotation Yrotation Zrotation
	JOINT LeftUpLeg_virtual
	{
		OFFSET 0.000000 0.000000 0.000000
		CHANNELS 3 Xrotation Yrotation Zrotation
		JOINT LeftUpLeg
		{
			OFFSET 15.427100 -6.655098 0.678600
			CHANNELS 3 Xrotation Yrotation Zrotation
			JOINT LeftLeg
			{
				OFFSET 4.081073 -39.591068 13.024000
				CHANNELS 3 Xrotation Yrotation Zrotation
				JOINT LeftFoot
				{
					OFFSET -4.081074 -37.707932 -15.979700
					CHANNELS 3 Xrotation Yrotation Zrotation
					JOINT LeftToeBase
					{
						OFFSET 5.346399 -15.068900 20.645000
						CHANNELS 3 Xrotation Yrotation Zrotation
						JOINT LeftToe_End
						{
							OFFSET 2.754700 0.931300 11.300900
							CHANNELS 3 Xrotation Yrotation Zrotation
							End Site
							{
								OFFSET 0 0 0
							}
						}
					}
				}
			}
		}
	}
	JOINT RightUpLeg_virtual
	{
		OFFSET 0.000000 0.000000 0.000000
		CHANNELS 3 Xrotation Yrotation Zrotation
		JOINT RightUpLeg
		{
			OFFSET -15.569500 -6.655098 0.678600
			CHANNELS 3 Xrotation Yrotation Zrotation
			JOINT RightLeg
			{
				OFFSET -4.081825 -39.591045 13.023800
				CHANNELS 3 Xrotation Yrotation Zrotation
				JOINT RightFoot
				{
					OFFSET 4.081824 -37.707954 -15.979600
					CHANNELS 3 Xrotation Yrotation Zrotation
					JOINT RightToeBase
					{
						OFFSET -5.346400 -15.068900 20.645000
						CHANNELS 3 Xrotation Yrotation Zrotation
						JOINT RightToe_End
						{
							OFFSET -2.754700 0.931300 11.300900
							CHANNELS 3 Xrotation Yrotation Zrotation
							End Site
							{
								OFFSET 0 0 0
							}
						}
					}
				}
			}
		}
	}
	JOINT Spine_virtual
	{
		OFFSET 0.000000 0.000000 0.000000
		CHANNELS 3 Xrotation Yrotation Zrotation
		JOINT Spine
		{
			OFFSET -0.279200 12.230698 -2.892100
			CHANNELS 3 Xrotation Yrotation Zrotation
			JOINT Spine1
			{
				OFFSET -0.232667 10.192268 -1.242267
				CHANNELS 3 Xrotation Yrotation Zrotation
				JOINT Spine1_split
				{
					OFFSET -0.232667 10.192268 -1.242267
					CHANNELS 3 Xrotation Yrotation Zrotation
					JOINT Spine2
					{
						OFFSET -0.232667 10.192268 -1.242267
						CHANNELS 3 Xrotation Yrotation Zrotation
						JOINT Neck_virtual
						{
							OFFSET 0.000000 0.000000 0.000000
							CHANNELS 3 Xrotation Yrotation Zrotation
							JOINT Neck
							{
								OFFSET -0.418800 17.814194 8.416900
								CHANNELS 3 Xrotation Yrotation Zrotation
								JOINT Head
								{
									OFFSET 0.000000 7.031097 3.806800
									CHANNELS 3 Xrotation Yrotation Zrotation
									JOINT HeadTop_End
									{
										OFFSET 0.000000 24.646606 12.978600
										CHANNELS 3 Xrotation Yrotation Zrotation
										End Site
										{
											OFFSET 0 0 0
										}
									}
								}
							}
						}
						JOINT LeftShoulder_virtual
						{
							OFFSET 0.000000 0.000000 0.000000
							CHANNELS 3 Xrotation Yrotation Zrotation
							JOINT LeftShoulder
							{
								OFFSET 8.476499 7.247704 -3.868750
								CHANNELS 3 Xrotation Yrotation Zrotation
								JOINT LeftShoulder_split
								{
									OFFSET 8.476499 7.247704 -3.868750
									CHANNELS 3 Xrotation Yrotation Zrotation
									JOINT LeftArm
									{
										OFFSET 9.308998 -2.777710 0.208600
										CHANNELS 3 Xrotation Yrotation Zrotation
										JOINT LeftForeArm
										{
											OFFSET 29.972298 0.000000 0.000000
											CHANNELS 3 Xrotation Yrotation Zrotation
											JOINT LeftHand
											{
												OFFSET 26.026505 0.000000 0.000000
												CHANNELS 3 Xrotation Yrotation Zrotation
												End Site
												{
													OFFSET 0 0 0
												}
											}
										}
									}
								}
							}
						}
						JOINT RightShoulder_virtual
						{
							OFFSET 0.000000 0.000000 0.000000
							CHANNELS 3 Xrotation Yrotation Zrotation
							JOINT RightShoulder
							{
								OFFSET -7.570500 7.247704 -3.868750
								CHANNELS 3 Xrotation Yrotation Zrotation
								JOINT RightShoulder_split
								{
									OFFSET -7.570500 7.247704 -3.868750
									CHANNELS 3 Xrotation Yrotation Zrotation
									JOINT RightArm
									{
										OFFSET -9.308998 -2.777710 0.208500
										CHANNELS 3 Xrotation Yrotation Zrotation
										JOINT RightForeArm
										{
											OFFSET -29.972300 0.000000 0.000000
											CHANNELS 3 Xrotation Yrotation Zrotation
											JOINT RightHand
											{
												OFFSET -26.026505 0.000000 0.000000
												CHANNELS 3 Xrotation Yrotation Zrotation
												End Site
												{
													OFFSET 0 0 0
												}
											}
										}
									}
								}
							}
						}
					}
				}
			}
		}
	}
}
MOTION
Frames: 6
Frame Time: 0.03333333
1.027061 96.175163 -2.170853 0.000000 0.000000 0.000000 2.912721 -28.996728 0.976887 -13.775961 18.268825 13.061705 14.399680 11.473683 -1.668638 -2.224696 -2.507681 -7.546913 -0.142081 0.007485 -0.310363 0.000000 0.000000 0.000000 2.912721 -28.996728 0.976887 -8.425481 -1.526186 -8.449297 10.998009 9.446607 0.847326 -5.765016 -0.831963 6.905979 -1.288151 -0.016835 0.151286 0.000000 0.000000 0.000000 2.912721 -28.996728 0.976887 7.837231 -0.327524 -2.471545 1.099251 -0.880574 2.383463 0.000000 0.000000 0.000000 0.000000 0.000000 0.000000 1.108682 -0.590438 2.446367 -3.841838 18.019055 -6.496487 -6.332742 13.021564 0.301528 0.000000 0.000000 0.000000 1.108682 -0.590438 2.446367 -0.057388 -8.759444 -0.061006 0.000000 0.000000 0.000000 -55.250828 0.329470 -41.449358 11.584324 -65.827301 13.005455 0.000000 0.000000 0.000000 1.108682 -0.590438 2.446367 4.849299 7.760145 5.560457 0.000000 0.000000 0.000000 -0.933457 -2.176907 61.845649 11.299283 18.943579 -3.987601 0.000000 0.000000 0.000000 
0.607702 94.855469 -1.813244 0.000000 0.000000 0.000000 3.262533 -26.758557 1.216217 -16.294137 16.992682 13.293684 17.915332 9.726935 -1.824314 -3.750758 -2.164915 -7.516033 -0.142082 0.007486 -0.310366 0.000000 0.000000 0.000000 3.262533 -26.758557 1.216217 -9.402361 -1.464394 -8.717691 14.892019 8.913845 0.805689 -8.822875 -2.358770 6.590622 -1.288155 -0.016851 0.151290 0.000000 0.000000 0.000000 3.262533 -26.758557 1.216217 7.262696 0.211309 -2.959608 1.305103 -0.239093 2.460832 0.000000 0.000000 0.000000 0.000000 0.000000 0.000000 1.292175 -0.018797 2.426598 -4.964535 16.791074 -6.023532 -6.880098 11.820295 1.376510 0.000000 0.000000 0.000000 1.292175 -0.018797 2.426598 -0.257676 -6.543717 -1.038124 0.000000 0.000000 0.000000 -54.949620 4.638170 -38.362656 19.162499 -71.200829 19.813680 0.000000 0.000000 0.000000 1.292175 -0.018797 2.426598 4.776425 8.473876 5.863062 0.000000 0.000000 0.000000 0.334841 -2.740971 62.151204 13.457523 18.694465 -5.471693 0.000000 0.000000 0.000000 
0.253613 93.732506 -1.358082 0.000000 0.000000 0.000000 3.570851 -23.722801 1.207512 -18.684392 15.894405 13.662802 20.939342 9.255572 -1.906684 -5.042964 -4.073992 -7.576399 -0.142068 0.007492 -0.310366 0.000000 0.000000 0.000000 3.570851 -23.722801 1.207512 -9.468958 -1.666041 -9.048040 17.766060 7.008465 0.735758 -11.653168 -3.201452 6.904129 -1.175378 -0.016530 0.151315 0.000000 0.000000 0.000000 3.570851 -23.722801 1.207512 6.420955 0.983880 -2.958371 1.662628 0.618024 2.465395 0.000000 0.000000 0.000000 0.000000 0.000000 0.000000 1.619632 0.757040 2.301281 -6.324934 14.707617 -5.323787 -7.042616 9.995198 2.091716 0.000000 0.000000 0.000000 1.619632 0.757040 2.301281 -0.430489 -4.648615 -2.168050 0.000000 0.000000 0.000000 -55.715824 9.563784 -35.523793 35.115307 -76.191279 35.108648 0.000000 0.000000 0.000000 1.619632 0.757040 2.301281 4.681176 9.389225 6.355680 0.000000 0.000000 0.000000 2.453037 -3.699835 62.477892 16.528076 18.324168 -8.202582 0.000000 0.000000 0.000000 
0.020886 92.895729 -0.720467 0.000000 0.000000 0.000000 3.676404 -18.918514 0.825719 -21.302778 15.737309 13.655736 22.980231 6.711405 -2.049145 -5.532939 -6.506519 -6.367805 -0.142072 0.007488 -0.310366 0.000000 0.000000 0.000000 3.676404 -18.918514 0.825719 -7.947168 -2.334749 -9.095141 19.291582 4.794572 0.689344 -14.322852 -5.322475 7.408541 -1.054704 -0.016287 0.154564 0.000000 0.000000 0.000000 3.676404 -18.918514 0.825719 5.430761 1.972736 -2.228638 2.064606 1.698942 2.291584 0.000000 0.000000 0.000000 0.000000 0.000000 0.000000 1.996167 1.736921 1.970747 -7.595029 11.075825 -4.165818 -6.842084 7.133092 2.266341 0.000000 0.000000 0.000000 1.996167 1.736921 1.970747 -0.558686 -3.354603 -3.234194 0.000000 0.000000 0.000000 -58.366630 14.790532 -32.753510 58.171628 -80.910161 57.132815 0.000000 0.000000 0.000000 1.996167 1.736921 1.970747 4.515290 10.793695 7.036819 0.000000 0.000000 0.000000 4.746201 -5.952378 62.668263 19.585603 17.472116 -11.371105 0.000000 0.000000 0.000000 
-0.105039 92.569244 0.111801 0.000000 0.000000 0.000000 3.519668 -12.074689 0.291397 -22.720047 12.923058 12.249734 23.614600 4.915751 -2.113875 -4.971263 -8.651152 -5.091204 -0.159489 0.007594 -0.313323 0.000000 0.000000 0.000000 3.519668 -12.074689 0.291397 -4.360077 -3.452089 -8.819335 18.882669 1.706160 0.637042 -16.504766 -8.526937 8.227516 -1.252545 -0.022634 0.198990 0.000000 0.000000 0.000000 3.519668 -12.074689 0.291397 4.462496 3.035521 -1.159907 2.369282 2.891456 1.948090 0.000000 0.000000 0.000000 0.000000 0.000000 0.000000 2.300657 2.810872 1.471403 -8.641740 5.609014 -2.386056 -6.186568 3.104663 1.987696 0.000000 0.000000 0.000000 2.300657 2.810872 1.471403 -0.659533 -2.009297 -3.785521 0.000000 0.000000 0.000000 -61.433351 19.092920 -30.053485 95.294547 -83.190666 93.074264 0.000000 0.000000 0.000000 2.300657 2.810872 1.471403 4.328658 12.165035 7.524711 0.000000 0.000000 0.000000 6.548154 -8.872228 62.861489 20.623416 17.103992 -12.133729 0.000000 0.000000 0.000000 
-0.124014 92.781357 1.125587 0.000000 0.000000 0.000000 3.287810 -3.624232 -0.185864 -23.145747 8.435910 9.629692 22.669659 3.371364 -2.108778 -3.350031 -10.515380 -3.772985 -0.260450 0.027864 -0.324451 0.000000 0.000000 0.000000 3.287810 -3.624232 -0.185864 0.553226 -5.600545 -8.270891 16.892796 -2.735274 0.595639 -17.459464 -11.090800 9.709216 -2.095329 -0.053125 0.333318 0.000000 0.000000 0.000000 3.287810 -3.624232 -0.185864 3.334414 4.167831 -0.216610 2.608962 4.158197 1.580372 0.000000 0.000000 0.000000 0.000000 0.000000 0.000000 2.562666 3.955186 0.956368 -9.675936 -1.203803 -0.247053 -4.912357 -1.858588 1.490866 0.000000 0.000000 0.000000 2.562666 3.955186 0.956368 -0.759648 -0.417834 -3.957043 0.000000 0.000000 0.000000 -65.134036 21.425832 -27.808270 123.436517 -83.194846 120.061134 0.000000 0.000000 0.000000 2.562666 3.955186 0.956368 4.203560 12.952749 7.891064 0.000000 0.000000 0.000000 7.764260 -11.211863 62.380541 20.142853 17.769318 -11.049310 0.000000 0.000000 0.000000 
